HIERARCHY
ROOT pelvis
{
  OFFSET 0 100 0
  CHANNELS 6 Xposition Yposition Zposition Zrotation Xrotation Yrotation
  JOINT pelvis_right_femur
  {
    OFFSET -10.78128 -3.44521 -0.5502486
    CHANNELS 3 Zrotation Xrotation Yrotation
    JOINT right_femur_tibia
    {
      OFFSET -0.8047443 -44.0398 -0.1307829
      CHANNELS 3 Zrotation Xrotation Yrotation
      JOINT right_tibia_foot
      {
        OFFSET 3.006224 -47.83518 -5
        CHANNELS 3 Zrotation Xrotation Yrotation
        End Site
        {
          OFFSET 0 -5 15
        }
      }
    }
  }
  JOINT pelvis_left_femur
  {
    OFFSET 10.78128 -3.44521 -0.5502486
    CHANNELS 3 Zrotation Xrotation Yrotation
    JOINT left_femur_tibia
    {
      OFFSET 0.8047443 -44.0398 -0.1307829
      CHANNELS 3 Zrotation Xrotation Yrotation
      JOINT left_tibia_foot
      {
        OFFSET -4.370144 -48.10324 -4.275266
        CHANNELS 3 Zrotation Xrotation Yrotation
        End Site
        {
          OFFSET 0 -5 15
        }
      }
    }
  }
  JOINT pelvis_spine1
  {
    OFFSET 0 6.468898 -3.129235
    CHANNELS 3 Zrotation Xrotation Yrotation
    JOINT spine1
    {
      OFFSET 0 23.15396 4.99043
      CHANNELS 3 Zrotation Xrotation Yrotation
      JOINT spine2
      {
        OFFSET 0 20.79997 -5.064912
        CHANNELS 3 Zrotation Xrotation Yrotation
        JOINT neck
        {
          OFFSET 0 14.38658 9.616178
          CHANNELS 3 Zrotation Xrotation Yrotation
          End Site
          {
            OFFSET 0 20 0
          }
        }
      }
      JOINT right_manubrium
      {
        OFFSET -5.722621 16.35077 3.967754
        CHANNELS 3 Zrotation Xrotation Yrotation
        JOINT right_clavicle
        {
          OFFSET -13.16364 1.694482 -4.693211
          CHANNELS 3 Zrotation Xrotation Yrotation
          JOINT right_humerus
          {
            OFFSET -28.5034 -0.3100689 -2.792744
            CHANNELS 3 Zrotation Xrotation Yrotation
            JOINT right_radius
            {
              OFFSET -25.15693 0.02248979 -1.271978
              CHANNELS 3 Zrotation Xrotation Yrotation
              End Site
              {
                OFFSET -15 0 0
              }
            }
          }
        }
      }
      JOINT left_manubrium
      {
        OFFSET 5.722621 16.35077 3.967754
        CHANNELS 3 Zrotation Xrotation Yrotation
        JOINT left_clavicle
        {
          OFFSET 13.16364 1.694482 -4.693211
          CHANNELS 3 Zrotation Xrotation Yrotation
          JOINT left_humerus
          {
            OFFSET 29.39168 -1.063119 -2.237045
            CHANNELS 3 Zrotation Xrotation Yrotation
            JOINT left_radius
            {
              OFFSET 24.59957 -0.9528479 0.9047498
              CHANNELS 3 Zrotation Xrotation Yrotation
              End Site
              {
                OFFSET 15 -0 -0
              }
            }
          }
        }
      }
    }
  }
}
MOTION
Frames: 18
Frame Time: 0.0416666666667
38.25905 105.7214 245.316 2.580991 -7.629311 7.029274 0.6651176 11.29203 7.139418 1.22342e-06 37.1675 -6.375318e-07 2.410749 -10.61998 -5.109535 -2.374381 -15.80432 -7.762117 3.467478e-06 19.47729 -6.699851e-07 -7.020007 -10.36517 19.36278 -1.93812 0.0644946 7.549099 -1.503285 10.11614 -4.038718 2.152698 22.00379 5.004514 2.463278 -15.88635 6.378846 2.745153 -20.97535 10.91949 83.11946 25.41143 -8.639085 -7.267869e-07 -1.307286e-06 24.13523 -22.36835 11.77789 12.86159 4.367339 -15.96209 -3.245464 -93.95647 26.7223 24.71982 2.218256e-07 -1.569085e-06 -11.82123 -5.076187 5.941341 20.32834
39.83183 106.1626 250.9637 2.79834 -8.067659 7.397296 0.3179506 9.172136 7.336639 9.078663e-07 43.65776 -6.596016e-07 2.406096 -8.342945 -5.771458 -3.449866 -12.35723 -8.92296 2.582764e-06 20.70622 -4.293981e-07 -6.795182 -10.88525 19.33603 -2.15764 0.02414065 7.029773 -1.547387 10.12985 -4.140131 2.242733 22.17897 5.147063 2.517656 -15.82032 6.624488 3.002468 -20.14799 10.78981 83.65373 25.35312 -9.518241 -7.283597e-07 -1.475754e-06 22.78714 -21.76226 11.47539 12.19729 4.184362 -15.80228 -3.414016 -93.25533 27.24882 23.70043 -7.061972e-08 -1.784835e-06 -11.38099 -4.995214 6.116244 20.31379
41.35957 106.9352 256.3805 3.044933 -8.502972 7.94213 0.04561221 5.821206 7.564401 1.064604e-06 49.72456 -9.862217e-07 2.508274 -6.531886 -6.67423 -4.511617 -7.754679 -10.25661 1.602594e-06 20.94532 -5.342806e-07 -6.384606 -11.91209 19.34628 -2.387473 -0.03879748 6.38375 -1.513373 10.10525 -4.395881 2.375241 22.33899 5.234016 2.478763 -15.71102 6.943491 3.21044 -19.28889 10.60583 84.4573 25.17115 -10.8 -9.482063e-07 -1.711088e-06 21.40676 -20.89021 11.24156 11.30041 4.099383 -15.77199 -3.609122 -92.33393 27.84448 22.22451 -2.871716e-07 -2.167526e-06 -11.37846 -4.8612 6.443833 20.17515
42.79852 107.8813 261.5038 3.216525 -8.755031 8.585155 0.04443075 1.524232 7.727267 1.857939e-06 53.36679 -1.724891e-06 2.469251 -5.683587 -7.600263 -5.303374 -2.621548 -11.53892 6.102906e-07 20.68389 -9.304254e-07 -5.867172 -13.18764 19.332 -2.542509 -0.1011028 5.675035 -1.338544 9.978605 -4.780657 2.524858 22.4394 5.240207 2.352404 -15.62258 7.275758 3.315448 -18.41955 10.37207 85.22244 24.95986 -12.34019 -1.331897e-06 -1.868682e-06 19.95918 -19.64668 11.05258 10.15742 4.145279 -15.91653 -3.762407 -91.08454 28.43146 20.2963 -3.922945e-07 -2.557679e-06 -11.9529 -4.566007 6.996264 19.73032
44.16356 108.7796 266.4795 3.335397 -8.763134 9.291566 0.1479203 -3.037311 7.56369 2.593857e-06 53.99392 -2.321452e-06 2.465525 -5.279218 -8.380679 -5.742938 2.117354 -12.32434 -2.890632e-08 19.37979 -1.556448e-06 -5.533747 -14.75733 19.14303 -2.64843 -0.1107512 5.021739 -1.111806 9.79515 -5.233145 2.631884 22.54471 5.278097 2.252647 -15.58189 7.557732 3.273611 -17.67422 10.15635 86.24432 24.73082 -13.98427 -1.684953e-06 -1.917724e-06 18.59018 -18.79475 10.94859 9.289035 4.419374 -16.37094 -3.923323 -89.89397 28.8142 18.07903 -3.368039e-07 -2.770428e-06 -13.35156 -4.180822 7.481328 19.17914
45.42738 109.4115 271.2907 3.309343 -8.480448 9.970588 0.4475783 -7.669722 7.197235 3.52302e-06 51.24961 -2.894622e-06 2.139035 -5.856619 -8.877656 -5.850077 6.353371 -12.90794 -5.553096e-07 17.18029 -2.300015e-06 -5.112349 -16.34833 18.91479 -2.659073 -0.1012397 4.387393 -0.7769409 9.444891 -5.683598 2.717635 22.54369 5.241782 2.091986 -15.57841 7.783763 3.039543 -17.01312 9.87734 86.73207 24.47887 -15.39424 -2.053161e-06 -1.76539e-06 17.27566 -17.73776 10.7885 8.375206 4.829014 -16.91173 -3.981807 -88.2979 29.03807 15.6382 -1.429576e-07 -2.802047e-06 -15.08737 -3.576548 8.179142 18.22566
46.59651 109.6211 276.1145 3.199952 -7.996957 10.59401 0.7777262 -12.13359 6.521984 4.024535e-06 45.69325 -2.968185e-06 1.762253 -6.687483 -9.182717 -5.721883 9.864234 -12.98661 -8.154685e-07 14.90663 -3.033682e-06 -5.082562 -17.97081 18.45305 -2.610069 0.01081969 3.823351 -0.4178012 8.990211 -6.113481 2.765476 22.59621 5.251934 1.997302 -15.58962 7.940087 2.689951 -16.33465 9.604686 87.32048 24.27704 -16.77315 -2.277126e-06 -1.424222e-06 15.863 -17.0663 10.63911 7.725885 5.423697 -17.65983 -4.00228 -86.75959 29.10663 12.90227 1.824522e-07 -2.556469e-06 -17.43403 -2.908685 8.728834 17.21572
47.68079 109.357 281.0943 3.031424 -7.412394 11.14105 1.086594 -16.16612 5.652754 4.184572e-06 38.56166 -2.685417e-06 1.340498 -7.50203 -9.332876 -5.482647 12.63438 -12.67582 -8.913505e-07 13.23432 -3.616718e-06 -5.443963 -19.43754 17.79686 -2.515404 0.2074925 3.340482 -0.06724719 8.487843 -6.489534 2.782581 22.72389 5.31607 1.983882 -15.62453 8.037106 2.303456 -15.6176 9.364359 88.02502 24.15901 -18.09549 -2.32927e-06 -9.433159e-07 14.33955 -16.73022 10.49143 7.301475 6.108706 -18.5202 -3.989179 -85.42397 29.07578 10.09236 5.788868e-07 -2.09269e-06 -20.08036 -2.233639 9.114207 16.24647
48.64881 108.64 286.1665 2.794217 -6.816715 11.58384 1.446116 -19.87686 4.850181 4.476255e-06 31.1665 -2.444503e-06 0.6726859 -8.534378 -9.384136 -5.213289 15.12891 -12.45281 -1.075236e-06 12.20326 -4.035135e-06 -5.7692 -20.62127 17.19095 -2.379405 0.4043783 2.865002 0.3043237 7.934514 -6.798516 2.808272 22.84129 5.339101 1.952226 -15.68306 8.123317 1.909884 -14.86213 9.108125 88.40074 24.08928 -19.24107 -2.334926e-06 -3.726096e-07 12.74757 -16.13482 10.24137 6.744961 6.737416 -19.27032 -3.906324 -84.00539 29.03135 7.384824 9.677623e-07 -1.576964e-06 -22.43992 -1.477285 9.622552 15.13863
49.49893 107.6002 291.3289 2.540411 -6.278555 11.92707 1.791041 -22.79971 4.139967 4.619248e-06 24.71997 -2.143568e-06 -0.1160777 -9.232468 -9.327638 -4.995715 17.03574 -12.23439 -1.27999e-06 12.48396 -4.130508e-06 -6.177354 -21.34896 16.61247 -2.231778 0.5975118 2.461754 0.6345267 7.438945 -7.009557 2.819131 22.99927 5.391998 1.98023 -15.80915 8.186163 1.611869 -14.09856 8.908096 88.68931 24.16164 -20.21632 -2.195281e-06 2.16091e-07 11.1189 -15.55133 9.93157 6.228501 7.241441 -19.89643 -3.800358 -82.85496 29.00439 5.090206 1.277842e-06 -9.994801e-07 -24.3501 -0.746463 10.09302 14.11605
50.24517 106.4215 296.5546 2.35324 -5.9582 12.20304 2.081627 -24.79885 3.670433 4.679347e-06 20.61614 -1.925404e-06 -0.8551511 -9.457637 -9.29372 -4.896718 18.48989 -12.13171 -1.554031e-06 14.03266 -3.956396e-06 -6.588318 -21.62375 16.17098 -2.104905 0.7609519 2.14119 0.8731899 7.079419 -7.120505 2.841641 23.19992 5.446597 2.036356 -15.933 8.24639 1.445478 -13.38785 8.772729 88.98541 24.26875 -21.00238 -1.994695e-06 7.011776e-07 9.636387 -15.01281 9.611657 5.747391 7.544197 -20.31131 -3.71684 -82.07746 29.06045 3.391511 1.44403e-06 -5.029849e-07 -25.56062 -0.1705301 10.47974 13.35079
50.94757 105.3596 301.9064 2.331709 -5.991425 12.47637 2.212217 -25.59096 3.44017 4.457667e-06 20.04402 -1.770227e-06 -1.303597 -8.728901 -9.359152 -5.004361 19.39043 -12.03159 -1.843037e-06 17.14724 -3.460621e-06 -7.171759 -21.44457 15.84786 -2.038959 0.9149857 1.946441 0.9438091 6.951307 -7.119953 2.878815 23.52898 5.550722 2.168268 -16.01759 8.309556 1.462377 -12.75581 8.747602 89.68669 24.35215 -21.65957 -1.707558e-06 9.934767e-07 8.375669 -14.86863 9.363488 5.480264 7.618594 -20.52993 -3.723322 -82.02439 29.27526 2.444982 1.414941e-06 -1.180583e-07 -26.03035 0.07706861 10.60234 13.13719
51.62996 104.6434 307.3311 2.38941 -6.328257 12.72956 2.439083 -24.98485 3.585721 4.214959e-06 21.80132 -1.755833e-06 -1.755991 -7.799193 -9.432274 -5.142036 19.43405 -12.02865 -2.271096e-06 21.99697 -2.655398e-06 -7.677944 -20.53242 15.75711 -1.936836 1.008123 1.908131 0.9112733 7.035525 -6.991886 2.946444 23.85331 5.570282 2.273169 -16.06237 8.336211 1.566147 -12.31455 8.805672 90.24859 24.36683 -21.9823 -1.439695e-06 1.137029e-06 7.485772 -14.70747 9.17015 5.214625 7.406987 -20.47688 -3.768308 -82.38287 29.54826 2.412039 1.185228e-06 1.088274e-07 -25.56889 0.134832 10.69818 13.18812
52.29858 104.4173 312.8072 2.468218 -6.879207 12.90936 2.853506 -22.9866 4.03302 4.043119e-06 24.30023 -1.824172e-06 -2.31793 -7.145973 -9.457725 -5.187578 18.33704 -11.99691 -2.859049e-06 28.65019 -1.508268e-06 -8.226279 -18.89182 15.88077 -1.751152 1.080006 2.062022 0.8185621 7.272736 -6.744126 3.046321 24.21808 5.489255 2.347405 -16.09765 8.314456 1.693898 -12.09459 8.952653 90.77307 24.35362 -22.00538 -1.18162e-06 1.235166e-06 6.987537 -14.54107 9.053789 4.970421 6.998212 -20.25082 -3.804114 -83.3048 29.88579 3.238972 8.321225e-07 2.630204e-07 -24.45316 0.04696212 10.80197 13.44005
52.93174 104.714 318.2076 2.492129 -7.507309 12.93122 3.458143 -19.46172 4.733215 4.211726e-06 26.48717 -2.049717e-06 -3.178937 -7.462995 -9.296927 -5.037326 15.80377 -12.07658 -3.754148e-06 35.9755 2.907394e-08 -8.566184 -16.59618 16.38914 -1.479623 1.116813 2.410364 0.7124943 7.532624 -6.333587 3.180572 24.55276 5.24841 2.323793 -16.14558 8.248277 1.768393 -12.20001 9.127773 90.74456 24.3814 -21.40643 -9.795727e-07 1.393253e-06 7.098768 -14.09065 8.911284 4.671809 6.425484 -19.73979 -3.722588 -84.62506 30.27029 5.027404 4.185818e-07 3.836778e-07 -22.49447 -0.09114116 11.10247 13.6848
53.51133 105.3809 323.4531 2.450702 -8.106755 12.73937 4.06706 -15.1201 5.397336 4.778461e-06 27.19419 -2.391661e-06 -4.16579 -8.871311 -9.014646 -4.678397 12.27492 -12.1371 -4.769538e-06 42.0581 1.634236e-06 -8.72454 -14.22603 17.15917 -1.166218 1.154167 2.871818 0.608059 7.703088 -5.821488 3.344377 24.83499 4.868143 2.18064 -16.13316 8.153322 1.670956 -12.61346 9.262299 90.21275 24.30506 -20.24482 -8.820994e-07 1.643407e-06 7.815362 -13.54598 8.753061 4.427485 5.875327 -19.07874 -3.528302 -86.07861 30.58569 7.266417 9.256584e-08 4.962745e-07 -20.2065 -0.2430735 11.55527 13.84366
54.06499 106.3331 328.6398 2.352694 -8.5407 12.34009 4.515942 -10.3927 5.765033 5.107969e-06 26.9628 -2.519892e-06 -5.089672 -10.23736 -8.535078 -4.274224 8.051888 -11.93451 -5.764989e-06 47.23583 3.440619e-06 -9.018844 -11.99165 17.89714 -0.8907852 1.231847 3.409901 0.4836728 7.828515 -5.270941 3.453244 25.16407 4.583468 2.118815 -16.21188 8.034504 1.553787 -13.14526 9.425862 89.77833 24.36963 -18.91673 -6.479242e-07 1.968274e-06 8.683817 -13.38648 8.613667 4.506737 5.433707 -18.49925 -3.295814 -87.90057 30.82135 9.692797 -1.55052e-07 7.84138e-07 -18.09743 -0.4167401 11.89532 14.08074
54.59752 107.3573 333.683 2.155467 -8.673483 11.74832 4.786412 -5.744076 5.83279 5.484268e-06 25.66485 -2.569672e-06 -6.079068 -11.96686 -7.780462 -3.825352 3.586684 -11.82307 -6.37111e-06 49.11581 4.840587e-06 -8.845145 -10.24792 18.7435 -0.6995156 1.254215 3.913976 0.3911096 7.79855 -4.694462 3.501021 25.34014 4.327338 2.022029 -16.38078 7.921549 1.310926 -13.90299 9.504641 88.67532 24.47601 -17.10236 -4.201923e-07 2.370594e-06 9.889466 -13.19457 8.35137 4.744462 5.109941 -17.86122 -2.977782 -89.40999 30.87581 12.20749 -2.857086e-07 1.165308e-06 -15.90775 -0.4138956 12.42506 14.01188
